<svg width="365" height="70" viewBox="0 0 365 70" fill="none" xmlns="http://www.w3.org/2000/svg">
<path d="M99.5 0L365 0L331.5 70H66L99.5 0Z" fill="#0041C2"/>
<path d="M59.5 0L85.5 0L52 70H26L59.5 0Z" fill="#0041C2"/>
<path d="M33.5 0L44.5 0L11 70H0L33.5 0Z" fill="#0041C2"/>
<path d="M158.536 41L157.906 39.218H153.172L152.524 41H148.24L153.568 28.382H157.852L162.982 41H158.536ZM154.252 36.23H156.88L155.584 32.54L154.252 36.23ZM170.233 28.382C171.613 28.382 172.819 28.64 173.851 29.156C174.883 29.672 175.681 30.41 176.245 31.37C176.809 32.318 177.091 33.422 177.091 34.682C177.091 35.954 176.803 37.064 176.227 38.012C175.651 38.96 174.829 39.698 173.761 40.226C172.705 40.742 171.475 41 170.071 41H164.599V28.382H170.233ZM170.341 37.76C171.097 37.76 171.697 37.484 172.141 36.932C172.597 36.38 172.825 35.642 172.825 34.718C172.825 33.782 172.579 33.032 172.087 32.468C171.607 31.904 170.959 31.622 170.143 31.622H168.775V37.76H170.341ZM184.791 28.382C186.171 28.382 187.377 28.64 188.409 29.156C189.441 29.672 190.239 30.41 190.803 31.37C191.367 32.318 191.649 33.422 191.649 34.682C191.649 35.954 191.361 37.064 190.785 38.012C190.209 38.96 189.387 39.698 188.319 40.226C187.263 40.742 186.033 41 184.629 41H179.157V28.382H184.791ZM184.899 37.76C185.655 37.76 186.255 37.484 186.699 36.932C187.155 36.38 187.383 35.642 187.383 34.718C187.383 33.782 187.137 33.032 186.645 32.468C186.165 31.904 185.517 31.622 184.701 31.622H183.333V37.76H184.899ZM197.409 28.382H208.767V31.676H205.167V41H200.991V31.676H197.409V28.382ZM216.405 28.112C217.725 28.112 218.913 28.394 219.969 28.958C221.025 29.522 221.847 30.302 222.435 31.298C223.035 32.294 223.335 33.416 223.335 34.664C223.335 35.924 223.035 37.058 222.435 38.066C221.847 39.074 221.025 39.866 219.969 40.442C218.913 41.006 217.725 41.288 216.405 41.288C215.085 41.288 213.897 41.006 212.841 40.442C211.785 39.866 210.957 39.074 210.357 38.066C209.769 37.058 209.475 35.924 209.475 34.664C209.475 33.404 209.769 32.276 210.357 31.28C210.957 30.284 211.785 29.51 212.841 28.958C213.897 28.394 215.085 28.112 216.405 28.112ZM216.459 31.586C215.979 31.586 215.529 31.724 215.109 32C214.701 32.264 214.371 32.63 214.119 33.098C213.879 33.566 213.759 34.094 213.759 34.682C213.759 35.27 213.879 35.804 214.119 36.284C214.371 36.752 214.701 37.124 215.109 37.4C215.529 37.676 215.979 37.814 216.459 37.814C216.939 37.814 217.377 37.682 217.773 37.418C218.169 37.142 218.481 36.764 218.709 36.284C218.937 35.804 219.051 35.27 219.051 34.682C219.051 34.094 218.937 33.566 218.709 33.098C218.481 32.618 218.169 32.246 217.773 31.982C217.377 31.718 216.939 31.586 216.459 31.586ZM242.919 41H237.933L235.269 36.608L234.081 37.94V41H229.905V28.382H234.081V32.99L237.843 28.382H242.649L238.131 33.422L242.919 41ZM253.943 41L253.313 39.218H248.579L247.931 41H243.647L248.975 28.382H253.259L258.389 41H253.943ZM249.659 36.23H252.287L250.991 32.54L249.659 36.23ZM267.26 41L265.748 37.724H264.182V41H260.006V28.382H266.108C267.824 28.382 269.15 28.778 270.086 29.57C271.022 30.35 271.49 31.46 271.49 32.9C271.49 33.812 271.316 34.61 270.968 35.294C270.632 35.966 270.14 36.5 269.492 36.896L271.976 41H267.26ZM264.182 34.556H266.108C266.564 34.556 266.912 34.424 267.152 34.16C267.404 33.884 267.53 33.506 267.53 33.026C267.53 32.558 267.404 32.198 267.152 31.946C266.912 31.682 266.564 31.55 266.108 31.55H264.182V34.556ZM273.139 28.382H284.497V31.676H280.897V41H276.721V31.676H273.139V28.382Z" fill="#F0F0EE"/>
</svg>
